<svg width="32" height="32" viewBox="0 0 32 32" fill="none" xmlns="http://www.w3.org/2000/svg">
<g clip-path="url(#clip0_228_637)">
<path d="M27.6364 0H4.36364C1.95367 0 0 1.95367 0 4.36364V27.6364C0 30.0463 1.95367 32 4.36364 32H27.6364C30.0463 32 32 30.0463 32 27.6364V4.36364C32 1.95367 30.0463 0 27.6364 0Z" fill="#1C8ADB"/>
<path d="M24.7164 8.27257L24.3855 8.39257L6.42549 14.8635C6.29822 14.9028 6.1876 14.9833 6.11097 15.0923C6.03435 15.2013 5.99605 15.3326 6.00208 15.4657C6.00811 15.5988 6.05813 15.7261 6.1443 15.8277C6.23046 15.9293 6.34791 15.9994 6.47822 16.0271L11.1273 17.2998L11.9946 19.8453L12.8619 22.3907C12.9117 22.5155 12.9912 22.6263 13.0935 22.7133C13.1959 22.8004 13.3179 22.8612 13.449 22.8904C13.5802 22.9196 13.7165 22.9163 13.8461 22.8809C13.9757 22.8455 14.0947 22.779 14.1928 22.6871L16.5946 20.418L21.3109 23.6162C21.8873 24.0089 22.7091 23.718 22.8564 23.0707L25.98 9.26893C26.1328 8.58529 25.4128 8.02348 24.7164 8.27257ZM22.4237 11.3362L14.3091 17.9689L13.9273 18.2817C13.8434 18.3482 13.7887 18.4446 13.7746 18.5507L13.6891 19.2562L13.4546 21.238C13.4565 21.2621 13.4488 21.286 13.4331 21.3044C13.4174 21.3228 13.3951 21.3343 13.3709 21.3362C13.3468 21.3381 13.3229 21.3304 13.3045 21.3147C13.2861 21.299 13.2747 21.2767 13.2728 21.2526L12.6128 19.2726L11.9309 17.2453C11.9021 17.1542 11.9059 17.0558 11.9418 16.9672C11.9776 16.8786 12.0432 16.8053 12.1273 16.7598L20.5709 11.9198L22.16 11.0107C22.3909 10.8762 22.6273 11.1689 22.4237 11.3362Z" fill="white"/>
</g>
<defs>
<clipPath id="clip0_228_637">
<rect width="32" height="32" fill="white"/>
</clipPath>
</defs>
</svg>
